<svg width="50" height="50" viewBox="0 0 50 50" fill="none" xmlns="http://www.w3.org/2000/svg">
<path opacity="0.1" fill-rule="evenodd" clip-rule="evenodd" d="M25 50C38.8071 50 50 38.8071 50 25C50 11.1929 38.8071 0 25 0C11.1929 0 0 11.1929 0 25C0 38.8071 11.1929 50 25 50Z" fill="#1EA59A"/>
<path d="M33.1742 21.85C34.5242 21.55 35.4992 20.35 35.4992 19C35.4992 17.35 34.1492 16 32.5742 16C31.4492 16 30.4742 16.675 29.9492 17.575" stroke="#1EA59A" stroke-width="2" stroke-linecap="round" stroke-linejoin="round"/>
<path d="M20.125 17.65C19.6 16.675 18.625 16 17.425 16C15.85 16 14.5 17.35 14.5 18.925C14.5 20.35 15.55 21.55 16.9 21.85" stroke="#1EA59A" stroke-width="2" stroke-linecap="round" stroke-linejoin="round"/>
<path d="M24.4746 20.2V25.075" stroke="#1EA59A" stroke-width="2" stroke-linecap="round" stroke-linejoin="round"/>
<path d="M27.4746 25.075H24.4746" stroke="#1EA59A" stroke-width="2" stroke-linecap="round" stroke-linejoin="round"/>
<path fill-rule="evenodd" clip-rule="evenodd" d="M33.0254 24.025C33.0254 28.45 29.4254 32.05 25.0004 32.05C20.5004 32.125 16.9004 28.525 16.9004 24.025C16.9004 19.6 20.5004 16 24.9254 16C29.4254 16 33.0254 19.6 33.0254 24.025Z" stroke="#1EA59A" stroke-width="2" stroke-linecap="round" stroke-linejoin="round"/>
<path d="M20.7352 30.7856L19.1602 34.7606" stroke="#1EA59A" stroke-width="2" stroke-linecap="round" stroke-linejoin="round"/>
<path d="M30.0352 30.7856L31.6102 34.7606" stroke="#1EA59A" stroke-width="2" stroke-linecap="round" stroke-linejoin="round"/>
</svg>
