<svg width="50" height="50" viewBox="0 0 50 50" fill="none" xmlns="http://www.w3.org/2000/svg">
<path opacity="0.1" fill-rule="evenodd" clip-rule="evenodd" d="M25 50C38.8071 50 50 38.8071 50 25C50 11.1929 38.8071 0 25 0C11.1929 0 0 11.1929 0 25C0 38.8071 11.1929 50 25 50Z" fill="#1EA59A"/>
<path fill-rule="evenodd" clip-rule="evenodd" d="M25.825 15.0249L33.025 22.7499C33.25 23.0499 33.4 23.4249 33.4 23.7999V32.4999C33.4 33.3249 32.725 33.9999 31.9 33.9999H17.5C16.675 33.9999 16 33.3249 16 32.4999V23.7999C16 23.4249 16.15 23.0499 16.375 22.7499L23.575 15.0249C24.175 14.4249 25.075 14.3499 25.675 14.9499C25.75 15.0249 25.75 15.0249 25.825 15.0249Z" stroke="#1EA59A" stroke-width="2" stroke-linecap="round" stroke-linejoin="round"/>
<path fill-rule="evenodd" clip-rule="evenodd" d="M24.6996 27.0999C26.0665 27.0999 27.1746 25.9918 27.1746 24.6249C27.1746 23.258 26.0665 22.1499 24.6996 22.1499C23.3327 22.1499 22.2246 23.258 22.2246 24.6249C22.2246 25.9918 23.3327 27.0999 24.6996 27.0999Z" stroke="#1EA59A" stroke-width="2" stroke-linecap="round" stroke-linejoin="round"/>
<path d="M23.6504 30.1748H25.7504" stroke="#1EA59A" stroke-width="2" stroke-linecap="round" stroke-linejoin="round"/>
</svg>
