<svg width="66" height="66" viewBox="0 0 66 66" fill="none" xmlns="http://www.w3.org/2000/svg">
<circle cx="33" cy="33" r="33" fill="#FEFFFE"/>
<path fill-rule="evenodd" clip-rule="evenodd" d="M17.6785 40.538C19.9845 24.7776 21.6514 17.8649 24.4126 16.0977C24.4921 17.7491 25.3211 19.1652 28.2903 20.5784C26.0348 23.7174 26.4361 27.6911 28.2403 31.2979C29.1627 32.1751 30.0804 33.0566 30.8682 34.0492C31.4656 34.8249 32.2515 35.3126 33.2105 35.5357C34.0588 35.3495 34.8136 34.93 35.4958 34.335C36.3463 33.3402 37.2351 32.4142 38.1809 31.5908C39.2276 30.1391 39.8191 27.9735 39.7234 24.7304C39.7295 23.1771 39.2603 21.7102 38.0094 20.3854C40.1504 19.533 41.812 18.3429 41.8942 16.0405C45.1836 18.7751 46.8893 28.3771 47.8928 41.0239L48.3213 41.7672C40.8455 58.2556 24.06 57.0402 17.9288 40.8495C17.8978 40.7677 17.7142 40.6183 17.6785 40.538ZM47.539 41.1991L45.6947 41.1984C40.518 54.0432 24.0664 52.4883 20.3562 40.7593L18.7028 40.6918C22.3793 51.6377 31.0149 52.8286 33.0903 52.7943C35.5762 52.7532 44.2066 51.6605 47.539 41.1991ZM45.161 41.0705L45.1159 40.9704L43.0521 26.4744L44.0947 40.9704L43.6951 41.1419C38.4735 48.2647 28.9759 48.9337 23.334 40.9704L21.7357 40.9176L22.4926 26.4744L20.6217 40.2699L20.838 40.9704C23.2861 47.257 28.8708 49.6326 32.9902 49.6213C37.2035 49.6099 42.5571 47.4013 45.161 41.0705ZM42.9472 40.9704H41.631L40.5955 32.0712L40.8526 40.9704H40.5459C36.3672 45.4616 30.3882 45.8278 26.1191 40.9809L25.4777 40.9821L25.8347 32.0712L24.6493 40.9704L23.9516 40.9849C25.5999 43.1266 29.3992 46.1738 33.5187 46.1626C37.732 46.1511 41.7858 42.9135 42.9472 40.9704ZM39.6265 40.9704L37.7823 40.9697C34.8233 42.3156 31.9845 42.2696 29.2542 40.9665L27.0866 40.9704C28.7349 43.1121 31.3291 43.8815 33.4045 43.8471C35.8905 43.806 38.4366 42.5418 39.6265 40.9704ZM29.5793 39.1337C32.1506 40.1889 34.996 40.1832 37.8458 39.0992L37.83 40.2949C35.3665 41.5226 32.4045 41.5768 29.5793 40.5558V39.1337ZM29.7756 37.1792C32.7545 37.3559 35.4234 36.5832 37.7738 34.8352L37.7229 38.3797C35.2594 39.6074 32.6009 39.6223 29.7756 38.6013V37.1792Z" fill="url(#paint0_linear_547_4)"/>
<path fill-rule="evenodd" clip-rule="evenodd" d="M33.3116 15.0301C32.9651 13.6438 31.9458 12.7504 30.3044 12.2788C32.2345 11.6339 34.2348 11.6039 36.3173 12.2931C34.5333 12.787 33.6601 13.6763 33.3116 15.0301Z" fill="#E9BC47"/>
<path fill-rule="evenodd" clip-rule="evenodd" d="M26.4973 17.2881C23.7893 12.9849 33.0387 11.4596 30.9902 16.1437C29.6041 18.3802 31.3936 19.3837 33.3108 20.0895V20.0629C35.2279 19.3572 37.0175 18.3537 35.6313 16.1171C33.5829 11.433 42.8322 12.9584 40.1242 17.2615C39.5299 18.0494 38.3616 18.7716 36.6967 19.3644C35.7525 19.7006 32.2682 20.4152 34.6469 21.5207C34.2721 21.5559 33.6666 21.5144 33.3108 20.9776V21.0042C32.9549 21.541 32.3495 21.5825 31.9746 21.5474C34.3534 20.4418 30.869 19.7271 29.9248 19.391C28.2599 18.7982 27.0916 18.076 26.4973 17.2881Z" fill="#E9BC47"/>
<path fill-rule="evenodd" clip-rule="evenodd" d="M32.2474 17.2668C32.0241 17.178 31.9292 17.2009 31.9153 17.0739L31.8261 15.9554C31.7849 15.8532 31.6924 15.8445 31.6226 15.9519C31.4296 16.3151 31.3299 16.725 31.3655 17.2025C31.6126 17.9426 32.7594 17.504 32.2474 17.2668Z" fill="#E9BC47"/>
<path fill-rule="evenodd" clip-rule="evenodd" d="M34.4395 17.2668C34.6629 17.178 34.7578 17.2009 34.7716 17.0739L34.8609 15.9554C34.902 15.8532 34.9946 15.8445 35.0644 15.9519C35.2573 16.3151 35.357 16.725 35.3215 17.2025C35.0743 17.9426 33.9275 17.504 34.4395 17.2668Z" fill="#E9BC47"/>
<path fill-rule="evenodd" clip-rule="evenodd" d="M28.2579 23.0346C27.9257 23.137 27.6855 23.299 27.5151 23.5062C28.2127 23.3562 28.9433 23.2412 29.6218 23.6456L31.7713 24.9641C31.8761 24.9978 31.9664 24.9733 32.0427 24.8927C32.0791 24.7684 32.0682 24.65 32.0284 24.5353C31.213 23.9403 30.3825 23.439 29.5289 23.0918C29.0757 22.9053 28.654 22.897 28.2579 23.0346Z" fill="#E9BC47"/>
<path fill-rule="evenodd" clip-rule="evenodd" d="M28.5851 25.5239L27.8782 24.9594L28.628 25.2238C29.7803 24.6013 30.714 25.2478 31.5559 25.917C31.4187 25.4379 31.0599 25.0143 30.5418 24.6307C29.8354 24.1153 28.9751 23.9787 28.0209 24.0732C27.3314 24.1691 27.1238 24.6839 27.264 25.3238C27.6331 26.0943 28.2788 26.6369 29.0993 26.8388C28.9541 26.6957 28.878 26.5579 28.8565 26.4243C28.816 26.1814 28.8374 25.9861 28.9208 25.8383C29.0393 25.733 29.1856 25.7459 29.3421 25.8026C29.1953 27.1537 30.621 27.2498 30.8346 26.1814L31.0488 26.3672C31.1522 26.5074 31.1979 26.732 31.1774 27.0533L31.7201 27.1747C31.7129 26.8711 31.6728 26.5802 31.5416 26.3243C31.3089 25.9414 31.0298 25.5944 30.549 25.4025C29.7916 25.1424 29.2752 25.1717 28.5851 25.5239ZM30.3418 25.7599C30.5095 25.7599 30.6454 25.8861 30.6454 26.0417C30.6454 26.1973 30.5095 26.3234 30.3418 26.3234C30.1742 26.3234 30.0383 26.1973 30.0383 26.0417C30.0383 25.8861 30.1742 25.7599 30.3418 25.7599Z" fill="#E9BC47"/>
<path fill-rule="evenodd" clip-rule="evenodd" d="M32.7816 32.0711C32.2275 31.9717 31.6672 31.9895 31.1035 32.0711C31.3864 31.2 32.5085 30.6465 33.3118 31.2419V31.2401C34.1151 30.6447 35.2372 31.1982 35.5201 32.0693C34.9564 31.9876 34.3961 31.9699 33.842 32.0693C33.6666 32.1752 33.5067 32.2305 33.3118 32.2567C33.1169 32.2305 32.9384 32.2021 32.7816 32.0711Z" fill="#E9BC47"/>
<path fill-rule="evenodd" clip-rule="evenodd" d="M33.3121 33.4895C32.2738 33.5 31.559 33.0858 31.1301 32.296C31.6542 32.2348 32.1712 32.2205 32.6763 32.2832C33.1001 32.4351 33.5146 32.4353 33.9187 32.2728C34.4331 32.2093 34.941 32.1903 35.4363 32.2603C34.9916 33.1191 34.2709 33.5073 33.3121 33.4895Z" fill="#E9BC47"/>
<path fill-rule="evenodd" clip-rule="evenodd" d="M32.8797 29.9808C32.8368 29.7296 32.3155 29.8856 32.0334 29.8379C32.1858 29.6359 32.3879 29.5193 32.7119 29.6128C32.8858 29.6699 32.9629 29.7809 32.8797 29.9808Z" fill="#E9BC47"/>
<path fill-rule="evenodd" clip-rule="evenodd" d="M33.6657 29.9808C33.7085 29.7296 34.2299 29.8856 34.5119 29.8379C34.3595 29.6359 34.1575 29.5193 33.8335 29.6128C33.6596 29.6699 33.5825 29.7809 33.6657 29.9808Z" fill="#E9BC47"/>
<path fill-rule="evenodd" clip-rule="evenodd" d="M38.3349 22.9056C38.667 23.0081 38.9073 23.1701 39.0775 23.3774C38.38 23.2274 37.6494 23.1122 36.9709 23.5167L34.8214 24.8352C34.7166 24.869 34.6263 24.8444 34.5501 24.7637C34.5136 24.6394 34.5245 24.5212 34.5643 24.4064C35.3797 23.8113 36.2102 23.3102 37.0637 22.9628C37.5169 22.7765 37.9387 22.7681 38.3349 22.9056Z" fill="#E9BC47"/>
<path fill-rule="evenodd" clip-rule="evenodd" d="M38.0068 25.3965L38.7138 24.8319L37.964 25.0964C36.8117 24.4739 35.8779 25.1204 35.0361 25.7896C35.1733 25.3106 35.5321 24.887 36.0501 24.5032C36.7566 23.9879 37.6169 23.8513 38.571 23.9458C39.2606 24.0416 39.4682 24.5565 39.3279 25.1964C38.9589 25.9669 38.3132 26.5095 37.4927 26.7115C37.6379 26.5683 37.714 26.4306 37.7355 26.2969C37.7759 26.054 37.7545 25.8587 37.6712 25.7109C37.5527 25.6056 37.4064 25.6185 37.2499 25.6752C37.3966 27.0264 35.971 27.1223 35.7573 26.054L35.5431 26.2398C35.4398 26.38 35.3941 26.6046 35.4145 26.9258L34.8718 27.0473C34.8791 26.7437 34.9192 26.4529 35.0504 26.1969C35.2831 25.814 35.5622 25.467 36.043 25.275C36.8003 25.0149 37.3167 25.0442 38.0068 25.3965ZM36.2501 25.6325C36.0825 25.6325 35.9466 25.7586 35.9466 25.9142C35.9466 26.0699 36.0825 26.196 36.2501 26.196C36.4178 26.196 36.5537 26.0699 36.5537 25.9142C36.5537 25.7586 36.4178 25.6325 36.2501 25.6325Z" fill="#E9BC47"/>
<defs>
<linearGradient id="paint0_linear_547_4" x1="48.3212" y1="53.576" x2="17.6521" y2="16.0619" gradientUnits="userSpaceOnUse">
<stop stop-color="#CA9000"/>
<stop offset="0.0196078" stop-color="#BB7F00"/>
<stop offset="0.0392157" stop-color="#AC6E00"/>
<stop offset="0.0509804" stop-color="#915900"/>
<stop offset="0.121569" stop-color="#B3872C"/>
<stop offset="0.25098" stop-color="#D6B659"/>
<stop offset="0.501961" stop-color="#FFF6AC"/>
<stop offset="0.678431" stop-color="#EBD683"/>
<stop offset="0.74902" stop-color="#D6B659"/>
<stop offset="0.870588" stop-color="#B4882D"/>
<stop offset="0.941176" stop-color="#915900"/>
<stop offset="0.94902" stop-color="#AC6E00"/>
<stop offset="1" stop-color="#CA9000"/>
</linearGradient>
</defs>
</svg>
