<svg width="43" height="42" viewBox="0 0 43 42" fill="none" xmlns="http://www.w3.org/2000/svg">
<path fill-rule="evenodd" clip-rule="evenodd" d="M21.6839 41.7897C33.2238 41.7897 42.5788 32.4348 42.5788 20.8948C42.5788 9.35494 33.2238 0 21.6839 0C10.144 0 0.789062 9.35494 0.789062 20.8948C0.789062 32.4348 10.144 41.7897 21.6839 41.7897Z" fill="white"/>
<g clip-path="url(#clip0_2_915)">
<path d="M26.1439 16.8272C26.1439 16.8272 27.1152 16.4485 27.0343 17.3683C27.0073 17.7471 26.7645 19.0727 26.5756 20.5065L25.928 24.754C25.928 24.754 25.8741 25.3762 25.3884 25.4844C24.9027 25.5926 24.1743 25.1057 24.0393 24.9974C23.9314 24.9163 22.0158 23.6989 21.3412 23.1037C21.1523 22.9414 20.9365 22.6167 21.3682 22.238L24.2012 19.5326C24.525 19.208 24.8488 18.4505 23.4997 19.3703L19.7223 21.9404C19.7223 21.9404 19.2906 22.2109 18.4812 21.9675L16.7274 21.4264C16.7274 21.4264 16.0799 21.0206 17.1861 20.6147C19.8842 19.3432 23.2029 18.0447 26.1439 16.8272Z" fill="#FD5B2F"/>
</g>
<defs>
<clipPath id="clip0_2_915">
<rect width="12" height="12" fill="white" transform="translate(15.7891 15)"/>
</clipPath>
</defs>
</svg>
