<svg width="42" height="42" viewBox="0 0 42 42" fill="none" xmlns="http://www.w3.org/2000/svg">
<path fill-rule="evenodd" clip-rule="evenodd" d="M20.8948 41.7897C32.4348 41.7897 41.7897 32.4348 41.7897 20.8948C41.7897 9.35494 32.4348 0 20.8948 0C9.35494 0 0 9.35494 0 20.8948C0 32.4348 9.35494 41.7897 20.8948 41.7897Z" fill="white"/>
<path fill-rule="evenodd" clip-rule="evenodd" d="M24.2204 18.3151C24.2204 18.3151 24.2204 18.2151 24.2204 18.3151C23.7112 17.8151 23.1001 17.6151 22.489 17.7151C23.1001 17.6151 23.4056 17.4151 23.5075 17.3151C23.5075 17.215 23.5075 17.115 23.4056 17.115C23.1001 17.115 22.7945 17.215 22.5908 17.3151C22.8964 17.115 22.9982 17.015 22.9982 16.915C22.6927 16.915 22.3871 17.115 21.9797 17.4151C22.0816 17.215 22.1834 17.115 22.0816 17.015C21.8779 17.115 21.776 17.215 21.6742 17.4151C21.3686 17.7151 21.1649 17.9151 21.0631 18.2151C20.6557 18.9151 20.3501 19.5151 20.1464 20.2151H20.0446C19.8409 19.9151 19.5353 19.6151 19.1279 19.4151C18.7205 19.1151 18.2113 18.9151 17.6002 18.6151C16.9891 18.3151 16.378 18.0151 15.665 17.8151C15.665 18.5151 15.9706 19.1151 16.6835 19.5151C16.4798 19.5151 16.1743 19.5151 15.9706 19.6151C15.9706 20.2151 16.4798 20.7152 17.3965 20.9152C17.0909 20.9152 16.7854 21.0152 16.4798 21.2152C16.7854 21.8152 17.2946 22.0152 18.1094 22.0152C18.0076 22.1152 17.8039 22.2152 17.8039 22.2152C17.702 22.3152 17.6002 22.5152 17.702 22.7152C17.9057 23.0152 18.1094 23.1152 18.6187 23.1152C17.9057 23.8153 16.9891 24.2153 15.9706 24.1153C15.3595 24.1153 14.6465 23.8153 13.9336 23.2152C14.6465 24.2153 15.665 25.0153 16.8872 25.5153C18.3131 25.9153 19.739 26.0153 21.0631 25.6153C22.3871 25.2153 23.6093 24.4153 24.526 23.3152C24.9334 22.7152 25.2389 22.1152 25.3408 21.5152C26.0537 21.5152 26.563 21.3152 26.8685 20.9152C26.6648 21.0152 26.1556 21.0152 25.4426 20.8152C26.1556 20.7152 26.6648 20.5152 26.7666 20.1151C26.2574 20.3152 25.7482 20.3152 25.2389 20.1151C25.1371 19.4151 24.8315 18.8151 24.2204 18.3151Z" fill="#FD5B2F"/>
</svg>
