<svg width="70" height="70" viewBox="0 0 70 70" fill="none" xmlns="http://www.w3.org/2000/svg">
<path fill-rule="evenodd" clip-rule="evenodd" d="M35 70C54.33 70 70 54.33 70 35C70 15.67 54.33 0 35 0C15.67 0 0 15.67 0 35C0 54.33 15.67 70 35 70Z" fill="#1EA59A"/>
<path d="M38.7294 44.625H29.1562C29.3794 44.625 29.5594 46.8194 29.5594 49.5225C29.5594 52.2275 29.38 54.4219 29.1562 54.4219H38.7294C38.5069 54.4219 38.3263 52.2275 38.3263 49.5225C38.3275 46.8194 38.5069 44.625 38.7294 44.625Z" fill="#BFBEBE"/>
<path d="M32.5101 44.625H29.1582C29.3813 44.625 29.5613 46.8194 29.5613 49.5225C29.5613 52.2275 29.382 54.4219 29.1582 54.4219H32.5101C32.7332 54.4219 32.9132 52.2275 32.9132 49.5225C32.9132 46.8194 32.7332 44.625 32.5101 44.625Z" fill="#AEAEAE"/>
<path d="M53.8641 44.5688C53.8641 47.0982 51.9578 49.1476 49.6103 49.1476H18.2791C15.9291 49.1476 14.0234 47.0982 14.0234 44.5688V21.3688C14.0234 18.8438 15.9291 16.7932 18.2791 16.7932H49.6103C51.9578 16.7932 53.8641 18.842 53.8641 21.3688V44.5688Z" fill="#D1D2D2"/>
<path d="M22.0809 44.5688V21.3688C22.0809 18.8438 23.9865 16.7932 26.3359 16.7932H18.2771C15.9271 16.7932 14.0215 18.842 14.0215 21.3688V44.5688C14.0215 47.0982 15.9271 49.1476 18.2771 49.1476H26.3359C23.9865 49.1476 22.0809 47.0976 22.0809 44.5682" fill="#C6C5C5"/>
<path d="M53.866 38.0881C53.866 40.6131 51.9598 42.6631 49.6123 42.6631H18.281C15.931 42.6631 14.0254 40.6149 14.0254 38.0881V21.3518C14.0254 18.8224 15.931 16.7737 18.281 16.7737H49.6123C51.9598 16.7737 53.866 18.8224 53.866 21.3518V38.0881Z" fill="#243438"/>
<path d="M14.0234 36.9062H53.8666V44.0106H14.0234V36.9062Z" fill="#243438"/>
<path d="M50.7183 18.9026H17.1677C16.8908 18.9026 16.6602 19.0557 16.6602 19.2401V41.047C16.6602 41.232 16.8908 41.3845 17.1677 41.3845H50.7183C50.8689 41.3845 50.9833 41.3526 51.0664 41.2963L51.0789 41.2838C51.0789 41.2838 51.0889 41.2763 51.0914 41.2695C51.1324 41.2482 51.1669 41.2163 51.1914 41.1772C51.2159 41.1381 51.2295 41.0931 51.2308 41.047V19.2445C51.2283 19.0601 50.9952 18.907 50.7183 18.907" fill="#58C5E8"/>
<path d="M34.4358 33.4745C40.0458 36.8357 45.5264 39.1245 51.2283 40.5088V19.2401C51.2283 19.0557 50.9952 18.9026 50.7183 18.9026H19.9308C23.0933 24.862 28.5358 29.9401 34.437 33.4745M34.4808 37.0438C27.712 33.357 20.9352 28.2501 16.6602 21.9438V41.0463C16.6602 41.2313 16.8908 41.3838 17.1677 41.3838H44.5508C41.2058 40.3057 37.8702 38.8926 34.482 37.0463" fill="#28A6DE"/>
<path d="M41.325 54.2043C41.325 54.6431 41.1137 54.9999 40.8544 54.9999H27.0356C26.7737 54.9999 26.5625 54.6431 26.5625 54.2043C26.5625 53.765 26.7737 53.4087 27.0356 53.4087H40.8544C41.1137 53.4068 41.325 53.7643 41.325 54.2043Z" fill="#D1D2D2"/>
<path d="M31.4609 54.2043C31.4609 53.7649 31.6722 53.4087 31.9316 53.4087H26.8534C26.5934 53.4087 26.3828 53.7649 26.3828 54.2043C26.3828 54.6431 26.5941 54.9999 26.8534 54.9999H31.9316C31.6722 54.9999 31.4609 54.6431 31.4609 54.2043Z" fill="#C6C5C5"/>
<path d="M35.4569 45.3843C35.3956 45.3256 35.3063 45.3087 35.1844 45.3437L34.4825 45.5231C34.2637 45.5824 34.1531 45.7268 34.1531 45.9593L34.1506 46.7099C34.1506 46.8187 34.175 46.8993 34.2237 46.9456C34.2444 46.9653 34.2688 46.9807 34.2956 46.9907C34.3223 47.0007 34.3508 47.0051 34.3794 47.0037C34.4169 47.0037 34.4519 46.9956 34.4969 46.9868L35.1981 46.8081C35.4169 46.7493 35.5281 46.6043 35.5306 46.3687V45.6206C35.5288 45.5099 35.5044 45.4306 35.4569 45.3843ZM35.0844 46.2387C35.0844 46.3218 35.0456 46.3731 34.9662 46.3949L34.7175 46.4599C34.7039 46.4626 34.6901 46.4643 34.6763 46.4649C34.6558 46.4653 34.6359 46.4585 34.62 46.4456C34.6038 46.4299 34.5931 46.4006 34.5962 46.3581V46.0912C34.5962 46.0081 34.635 45.9568 34.7131 45.9356L34.965 45.8706C35.0081 45.8606 35.0406 45.8656 35.0594 45.8849C35.0781 45.9018 35.0862 45.9299 35.0862 45.9699V46.2393H35.0844V46.2387ZM34.1106 45.1018C34.1106 44.8693 34.0012 44.7243 33.7806 44.6656L33.0794 44.4862C32.9581 44.4512 32.8681 44.4699 32.81 44.5268C32.7587 44.5731 32.7344 44.6524 32.7344 44.7624L32.7369 45.5093C32.7394 45.7449 32.8487 45.8906 33.0669 45.9487L33.7706 46.1281C33.8119 46.1406 33.8506 46.1449 33.8844 46.1449C33.913 46.1465 33.9416 46.1421 33.9684 46.1319C33.9952 46.1218 34.0196 46.1062 34.04 46.0862C34.0887 46.0406 34.1131 45.9606 34.1131 45.8506L34.1106 45.1018ZM33.6444 45.5881C33.6319 45.6012 33.6131 45.6074 33.5887 45.6074C33.5887 45.6074 33.5619 45.6049 33.5475 45.6024L33.2975 45.5374C33.22 45.5156 33.1787 45.4643 33.1787 45.3812V45.1118C33.1787 45.0731 33.1887 45.0443 33.205 45.0268C33.2244 45.0074 33.2562 45.0024 33.3019 45.0124L33.5519 45.0774C33.6294 45.0987 33.6706 45.1499 33.6706 45.2331V45.5024C33.6706 45.5412 33.6706 45.5706 33.6444 45.5881ZM34.6037 47.0262C34.6162 47.0262 34.6281 47.0237 34.645 47.0181L34.895 46.9537C34.9725 46.9356 35.0137 46.8818 35.0137 46.7962V46.5299C35.0148 46.4993 35.0062 46.4692 34.9894 46.4437C34.9675 46.4224 34.9331 46.4199 34.8925 46.4306L34.64 46.4949C34.5625 46.5143 34.5231 46.5674 34.5231 46.6524L34.5206 46.9206C34.5206 46.9593 34.5306 46.9856 34.5475 47.0024C34.56 47.0187 34.5794 47.0262 34.6037 47.0262ZM34.0331 47.0262C34.0182 47.026 34.0034 47.0232 33.9894 47.0181L33.7394 46.9537C33.6619 46.9356 33.6225 46.8818 33.6225 46.7962L33.62 46.5299C33.62 46.4906 33.63 46.4643 33.6469 46.4437C33.6662 46.4224 33.7 46.4199 33.7412 46.4306L33.9962 46.4949C34.0719 46.5143 34.1131 46.5674 34.1131 46.6524V46.9206C34.1131 46.9593 34.1031 46.9856 34.0887 47.0024C34.0818 47.0102 34.0732 47.0164 34.0636 47.0205C34.054 47.0246 34.0436 47.0265 34.0331 47.0262Z" fill="#243438"/>
</svg>
